# xmcd
#
# Track frame offsets: 
#        150
#        13679
#        29932
#        41401
#        54205
#        65161
#        76738
#        89224
#        100607
#        112951
#        124350
#        139156
#        151179
#        163037
#        174062
#        186713
#        209366
#        219294
#
# Disc length: 3119 seconds
#
# Revision: 2
# Processed by: cddbd v1.5.1PL2 Copyright (c) Steve Scherf et al.
# Submitted via: ExactAudioCopy v0.95b3
#
DISCID=fa0c2d12
DTITLE=Various Artist - In the Country of Country
DYEAR=1900
DGENRE=country
TTITLE0=Jimmie Rodgers - T.B. Blues
TTITLE1=The Carter Family - Motherless Children
TTITLE2=Kitty Wells - It Wasn't God Who Made Honky Tonk Angels
TTITLE3=Patsy Cline - I Fall to Pieces
TTITLE4=Bill Monroe - I'm on My Way to the Old Home
TTITLE5=The Stanley Brothers - Fields Have Turned Brown
TTITLE6=Flatt and ScruggsFlint Hill Special
TTITLE7=The Louvin Brothers - When I Stop Dreaming
TTITLE8=Doc Watson - Blue Railroad Train
TTITLE9=Johnny Cash - Big River
TTITLE10=George Jones - He Stopped Loving Her Today
TTITLE11=Chet Atkins - Taste of Honey
TTITLE12=Rose Maddox - Sally Let Your Bangs Hang Down
TTITLE13=Buck Owens - Excuse Me (I Think I've Got a Heartache)
TTITLE14=Merle Haggard - I Take a Lot of Pride in What I Am
TTITLE15=Iris Dement - Easy's Gettin' Harder Every Day
TTITLE16=The Flatlanders - You've Never Seen Me Cry
TTITLE17=Emmylou Harris - Orphan Girl
EXTD=
EXTT0=
EXTT1=
EXTT2=
EXTT3=
EXTT4=
EXTT5=
EXTT6=
EXTT7=
EXTT8=
EXTT9=
EXTT10=
EXTT11=
EXTT12=
EXTT13=
EXTT14=
EXTT15=
EXTT16=
EXTT17=
PLAYORDER=
